<svg width="400" height="509" viewBox="0 0 450 559" fill="none" xmlns="http://www.w3.org/2000/svg">
<path d="M138 4H312V12C312 23.0457 303.046 32 292 32H158C146.954 32 138 23.0457 138 12V4Z" fill="#EEEEEE"/>
<mask id="path-2-inside-1_18_64" fill="white">
<path d="M0 20C0 8.9543 8.95431 0 20 0H430C441.046 0 450 8.95431 450 20V559H0V20Z"/>
</mask>
<path d="M-11 20C-11 2.87917 2.87917 -11 20 -11H430C447.121 -11 461 2.87917 461 20H439C439 15.0294 434.971 11 430 11H20C15.0294 11 11 15.0294 11 20H-11ZM450 559H0H450ZM-11 559V20C-11 2.87917 2.87917 -11 20 -11V11C15.0294 11 11 15.0294 11 20V559H-11ZM430 -11C447.121 -11 461 2.87917 461 20V559H439V20C439 15.0294 434.971 11 430 11V-11Z" fill="#EEEEEE" mask="url(#path-2-inside-1_18_64)"/>
</svg>
